<svg xmlns="http://www.w3.org/2000/svg"
	xmlns:xlink="http://www.w3.org/1999/xlink" version="1.1" x="0px" y="0px" viewBox="0 0 96 120" enable-background="new 0 0 96 96" xml:space="preserve">
	<g>
		<path d="M43.75,71.564h8.5v-33.5h-8.5V71.564z M44.75,39.065h6.5v31.5h-6.5V39.065z"/>
		<path d="M48,24.437c-3.032,0-5.499,2.467-5.499,5.499s2.467,5.499,5.499,5.499s5.499-2.467,5.499-5.499S51.032,24.437,48,24.437z    M48,34.435c-2.481,0-4.499-2.018-4.499-4.499s2.018-4.499,4.499-4.499c2.48,0,4.499,2.018,4.499,4.499S50.48,34.435,48,34.435z"/>
		<path d="M48,7.5C25.668,7.5,7.5,25.668,7.5,48c0,22.332,18.168,40.5,40.5,40.5c22.332,0,40.5-18.168,40.5-40.5   C88.5,25.668,70.332,7.5,48,7.5z M48,87.5C26.22,87.5,8.5,69.78,8.5,48S26.22,8.5,48,8.5S87.5,26.22,87.5,48S69.78,87.5,48,87.5z"/>
	</g>
</svg>